<svg width="80" height="80" viewBox="0 0 80 80" fill="none" xmlns="http://www.w3.org/2000/svg">
<rect width="80" height="80" rx="40" fill="#101828"/>
<path d="M28.6992 66C28.1962 66 27.7715 65.6264 27.7073 65.1275L22.1449 21.8577C22.0681 21.2597 22.5339 20.7302 23.1368 20.7302H29.9323C30.2038 20.7302 30.4338 20.9303 30.4713 21.1993L31.1 25.712C31.1239 25.8834 31.3756 25.8707 31.3821 25.6978V25.6978C31.3831 25.6722 31.391 25.6474 31.405 25.6259C32.5616 23.857 34.1271 22.4887 36.1013 21.5212C38.0876 20.5071 40.3844 20 42.9915 20C46.178 20 49.0542 20.7707 51.6199 22.3122C54.1857 23.8536 56.2134 25.9224 57.7032 28.5185C59.2344 31.1146 60 34.0353 60 37.2804C60 40.485 59.2551 43.4056 57.7653 46.0423C56.2755 48.679 54.2478 50.7681 51.682 52.3095C49.1162 53.8104 46.1987 54.5609 42.9295 54.5609C40.4879 54.5609 38.2325 54.0944 36.1633 53.1614C34.3032 52.2683 32.7913 51.0339 31.6276 49.4581C31.4403 49.2045 31.4589 48.8571 31.6594 48.6138V48.6138C32.0433 48.1479 32.7964 48.3405 32.9095 48.9335L35.937 64.8127C36.0545 65.429 35.582 66 34.9547 66H28.6992ZM41.9984 47.2593C43.8606 47.2593 45.5159 46.8333 46.9643 45.9815C48.4127 45.1296 49.5301 43.9533 50.3164 42.4524C51.144 40.9515 51.5578 39.2275 51.5578 37.2804C51.5578 35.3333 51.144 33.6296 50.3164 32.1693C49.5301 30.6684 48.4127 29.4921 46.9643 28.6402C45.5159 27.7478 43.8606 27.3016 41.9984 27.3016C40.2189 27.3016 38.6049 27.7275 37.1565 28.5794C35.7495 29.4312 34.6322 30.6279 33.8045 32.1693C33.0182 33.6702 32.6251 35.3739 32.6251 37.2804C32.6251 39.2275 33.0182 40.9515 33.8045 42.4524C34.6322 43.9533 35.7495 45.1296 37.1565 45.9815C38.6049 46.8333 40.2189 47.2593 41.9984 47.2593Z" fill="white"/>
</svg>
