<svg width="692" height="109" viewBox="0 0 692 109" fill="none" xmlns="http://www.w3.org/2000/svg">
<g clip-path="url(#clip0_4787_24969)">
<path d="M-0.999997 111C14.2333 111 29.3175 108 43.3913 102.17C57.465 96.3405 70.2528 87.796 81.0244 77.0244C91.796 66.2528 100.34 53.465 106.17 39.3913C112 25.3175 115 10.2333 115 -5L-0.999992 -5L-0.999997 111Z" fill="black" fill-opacity="0.15"/>
<path d="M115 -5C115 10.2333 118.026 25.3175 123.906 39.3913C129.786 53.465 138.404 66.2528 149.269 77.0244C160.133 87.796 173.031 96.3405 187.226 102.17C201.421 108 216.635 111 232 111L232 -4.99999L115 -5Z" fill="black" fill-opacity="0.15"/>
<path d="M232 -5C232 10.2333 235 25.3175 240.83 39.3913C246.66 53.465 255.204 66.2528 265.976 77.0244C276.747 87.796 289.535 96.3405 303.609 102.17C317.682 108 332.767 111 348 111L348 -4.99999L232 -5Z" fill="black" fill-opacity="0.15"/>
<path d="M581 111C565.635 111 550.421 108 536.226 102.17C522.031 96.3405 509.133 87.796 498.269 77.0244C487.404 66.2528 478.786 53.465 472.906 39.3913C467.026 25.3175 464 10.2333 464 -5L581 -4.99999L581 111Z" fill="black" fill-opacity="0.15"/>
<path d="M697 111C681.767 111 666.682 108 652.609 102.17C638.535 96.3405 625.747 87.796 614.976 77.0244C604.204 66.2528 595.66 53.465 589.83 39.3913C584 25.3175 581 10.2333 581 -5L697 -4.99999L697 111Z" fill="black" fill-opacity="0.15"/>
<path d="M348 111C348 95.7667 351 80.6825 356.83 66.6087C362.66 52.535 371.204 39.7472 381.976 28.9756C392.747 18.204 405.535 9.65952 419.609 3.82998C433.682 -1.99957 448.767 -5 464 -5L464 111L348 111Z" fill="black" fill-opacity="0.15"/>
</g>
<defs>
<clipPath id="clip0_4787_24969">
<rect width="692" height="109" fill="white" transform="matrix(1 0 0 -1 0 109)"/>
</clipPath>
</defs>
</svg>
